<svg width="48" height="48" viewBox="0 0 48 48" fill="none" xmlns="http://www.w3.org/2000/svg">
<path d="M43.6483 18.0017L43.6878 18.114L43.8343 18.5991L43.9569 19.0345L44.0092 19.2334L44.0949 19.5934C45.2067 24.6099 44.3952 29.8611 41.8209 34.308C39.2523 38.7686 35.1005 42.1005 30.1895 43.6423L29.8432 43.7451L29.418 43.8548L28.8035 44.0005C28.5864 44.05 28.3614 44.0541 28.1427 44.0127C27.9239 43.9714 27.716 43.8853 27.532 43.76C27.348 43.6347 27.1918 43.4728 27.0731 43.2844C26.9544 43.096 26.8759 42.8852 26.8423 42.6651C26.7734 42.2134 26.8766 41.7522 27.1316 41.373C27.3865 40.9938 27.7746 40.7241 28.2189 40.6174L28.7135 40.4931C29.022 40.412 29.2875 40.334 29.5098 40.2591C33.4537 38.9275 36.7757 36.2017 38.8518 32.5937C40.94 28.9884 41.6387 24.7442 40.8163 20.6597L40.7572 20.3914L40.6783 20.0785L40.5798 19.7203L40.4615 19.3174C40.329 18.8779 40.3665 18.4048 40.5665 17.9916C40.7666 17.5785 41.1146 17.2557 41.5415 17.0871C41.7399 17.0087 41.9517 16.9702 42.165 16.9738C42.3783 16.9773 42.5888 17.0229 42.7844 17.1078C42.9801 17.1927 43.1571 17.3154 43.3053 17.4688C43.4536 17.6222 43.5701 17.8032 43.6483 18.0017ZM6.33004 17.0743C6.36719 17.0857 6.40376 17.0983 6.43976 17.112C6.86572 17.278 7.21377 17.598 7.41492 18.0085C7.61606 18.4191 7.65562 18.8902 7.52576 19.3285C7.37147 19.848 7.26004 20.2803 7.19147 20.6254C6.37268 24.7066 7.07219 28.9464 9.15861 32.5483C11.2365 36.1595 14.5626 38.8868 18.5109 40.2171L18.7732 40.3003L18.9223 40.3431L19.2566 40.434L19.8515 40.5805C20.2984 40.6856 20.6894 40.9548 20.9471 41.3348C21.2048 41.7147 21.3103 42.1776 21.2426 42.6317C21.1791 43.0574 20.9491 43.4405 20.6032 43.6968C20.2573 43.953 19.8238 44.0613 19.398 43.998L19.2798 43.9765L18.786 43.8608L18.3489 43.7494L17.9666 43.6423L17.7952 43.5908C12.8943 42.0449 8.7522 38.7156 6.18861 34.2617C3.60956 29.807 2.79969 24.5455 3.91976 19.5214L3.98576 19.2471L4.07147 18.9257L4.23776 18.3557L4.3029 18.1414C4.36586 17.9382 4.46824 17.7493 4.60419 17.5856C4.74014 17.422 4.907 17.2867 5.09525 17.1875C5.28349 17.0883 5.48943 17.0272 5.7013 17.0076C5.91316 16.988 6.12681 17.0113 6.33004 17.0743ZM24.0438 10.2857C31.6183 10.2857 37.758 16.4254 37.758 24C37.758 31.5745 31.6183 37.7143 24.0438 37.7143C16.4692 37.7143 10.3295 31.5745 10.3295 24C10.3295 16.4254 16.47 10.2857 24.0438 10.2857ZM24.0438 13.7143C18.3635 13.7143 13.758 18.3197 13.758 24C13.758 29.6803 18.3635 34.2857 24.0438 34.2857C29.7249 34.2857 34.3295 29.6803 34.3295 24C34.3295 18.3197 29.7249 13.7143 24.0438 13.7143ZM24.0438 3.42854C29.1913 3.42223 34.153 5.3516 37.944 8.83369L38.1489 9.02826L38.3846 9.26312L38.6503 9.53912L38.9469 9.8554C39.0982 10.0187 39.2142 10.2114 39.2877 10.4215C39.3613 10.6316 39.3907 10.8545 39.3742 11.0765C39.3577 11.2985 39.2957 11.5147 39.1919 11.7116C39.0882 11.9086 38.9449 12.082 38.7712 12.2211C38.4144 12.507 37.9633 12.6483 37.5071 12.6172C37.051 12.5861 36.6233 12.3848 36.3086 12.0531C36.1223 11.856 35.9495 11.6797 35.79 11.5243L35.49 11.238L35.3529 11.1154C32.2279 8.36552 28.2064 6.85127 24.0438 6.85712C19.8773 6.85107 15.8523 8.36793 12.726 11.1223L12.6283 11.2097L12.4115 11.4154L12.1655 11.6597L11.7412 12.1011C11.0898 12.7945 10.0149 12.8725 9.27004 12.2811C9.103 12.1485 8.96372 11.9843 8.86017 11.7978C8.75662 11.6114 8.69082 11.4063 8.66655 11.1944C8.64227 10.9825 8.65998 10.7679 8.71868 10.5629C8.77737 10.3578 8.87589 10.1664 9.00861 9.9994L9.08576 9.90854L9.4329 9.53912L9.74833 9.21512C9.89804 9.06483 10.0363 8.93197 10.1632 8.81654C13.9516 5.3455 18.9048 3.42271 24.0429 3.42854" fill="white"/>
</svg>
