<svg width="48" height="48" viewBox="0 0 48 48" fill="none" xmlns="http://www.w3.org/2000/svg">
<path d="M16.0001 24H16.0201M24.0001 24H24.0201M32.0001 24H32.0201M5.98412 32.684C6.27819 33.4258 6.34367 34.2387 6.17211 35.018L4.04211 41.598C3.97348 41.9317 3.99123 42.2774 4.09367 42.6023C4.1961 42.9272 4.37984 43.2206 4.62745 43.4545C4.87506 43.6885 5.17833 43.8554 5.50851 43.9393C5.83869 44.0232 6.18484 44.0214 6.51411 43.934L13.3401 41.938C14.0755 41.7921 14.8372 41.8559 15.5381 42.122C19.8089 44.1164 24.6468 44.5384 29.1984 43.3134C33.75 42.0885 37.7227 39.2953 40.4155 35.4267C43.1084 31.5582 44.3484 26.8628 43.9167 22.1691C43.4851 17.4754 41.4095 13.0849 38.0562 9.77239C34.703 6.45984 30.2875 4.43808 25.5889 4.06379C20.8902 3.68951 16.2104 4.98676 12.375 7.72668C8.53961 10.4666 5.79518 14.4731 4.6259 19.0393C3.45663 23.6055 3.93765 28.4379 5.98412 32.684Z" stroke="white" stroke-width="4" stroke-linecap="round" stroke-linejoin="round"/>
</svg>
