<svg width="48" height="48" viewBox="0 0 48 48" fill="none" xmlns="http://www.w3.org/2000/svg">
<path fill-rule="evenodd" clip-rule="evenodd" d="M38 6C39.5913 6 41.1174 6.63214 42.2426 7.75736C43.3679 8.88258 44 10.4087 44 12V32C44 33.5913 43.3679 35.1174 42.2426 36.2426C41.1174 37.3679 39.5913 38 38 38H14.666L8 43C6.352 44.236 4 43.06 4 41V12C4 10.4087 4.63214 8.88258 5.75736 7.75736C6.88258 6.63214 8.4087 6 10 6H38ZM22 24H16C15.4696 24 14.9609 24.2107 14.5858 24.5858C14.2107 24.9609 14 25.4696 14 26C14 26.5304 14.2107 27.0391 14.5858 27.4142C14.9609 27.7893 15.4696 28 16 28H22C22.5304 28 23.0391 27.7893 23.4142 27.4142C23.7893 27.0391 24 26.5304 24 26C24 25.4696 23.7893 24.9609 23.4142 24.5858C23.0391 24.2107 22.5304 24 22 24ZM32 16H16C15.4902 16.0006 14.9999 16.1958 14.6293 16.5457C14.2586 16.8956 14.0355 17.3739 14.0057 17.8828C13.9758 18.3917 14.1413 18.8928 14.4685 19.2837C14.7957 19.6746 15.2598 19.9258 15.766 19.986L16 20H32C32.5098 19.9994 33.0001 19.8042 33.3707 19.4543C33.7414 19.1044 33.9645 18.6261 33.9943 18.1172C34.0242 17.6083 33.8587 17.1072 33.5315 16.7163C33.2043 16.3254 32.7402 16.0742 32.234 16.014L32 16Z" fill="white"/>
</svg>
