<svg width="48" height="48" viewBox="0 0 48 48" fill="none" xmlns="http://www.w3.org/2000/svg">
<path d="M24 34C25.0609 34 26.0783 34.4214 26.8284 35.1716C27.5786 35.9217 28 36.9391 28 38C28 39.0609 27.5786 40.0783 26.8284 40.8284C26.0783 41.5786 25.0609 42 24 42C22.9391 42 21.9217 41.5786 21.1716 40.8284C20.4214 40.0783 20 39.0609 20 38C20 36.9391 20.4214 35.9217 21.1716 35.1716C21.9217 34.4214 22.9391 34 24 34ZM24 20C25.0609 20 26.0783 20.4214 26.8284 21.1716C27.5786 21.9217 28 22.9391 28 24C28 25.0609 27.5786 26.0783 26.8284 26.8284C26.0783 27.5786 25.0609 28 24 28C22.9391 28 21.9217 27.5786 21.1716 26.8284C20.4214 26.0783 20 25.0609 20 24C20 22.9391 20.4214 21.9217 21.1716 21.1716C21.9217 20.4214 22.9391 20 24 20ZM24 6C25.0609 6 26.0783 6.42143 26.8284 7.17157C27.5786 7.92172 28 8.93913 28 10C28 11.0609 27.5786 12.0783 26.8284 12.8284C26.0783 13.5786 25.0609 14 24 14C22.9391 14 21.9217 13.5786 21.1716 12.8284C20.4214 12.0783 20 11.0609 20 10C20 8.93913 20.4214 7.92172 21.1716 7.17157C21.9217 6.42143 22.9391 6 24 6Z" fill="white"/>
</svg>
